<?xml version="1.0" encoding="UTF-8" standalone="no"?>
<svg
   xmlns:dc="http://purl.org/dc/elements/1.1/"
   xmlns:cc="http://creativecommons.org/ns#"
   xmlns:rdf="http://www.w3.org/1999/02/22-rdf-syntax-ns#"
   xmlns:svg="http://www.w3.org/2000/svg"
   xmlns="http://www.w3.org/2000/svg"
   xmlns:sodipodi="http://sodipodi.sourceforge.net/DTD/sodipodi-0.dtd"
   xmlns:inkscape="http://www.inkscape.org/namespaces/inkscape"
   width="128px"
   height="128px"
   viewBox="0 0 215 220"
   enable-background="new 0 0 215 220"
   xml:space="preserve"
   version="1.1"
   id="svg8"
   sodipodi:docname="css3.svg"
   inkscape:version="0.92.0 r15299"><metadata
     id="metadata14"><rdf:RDF><cc:Work
         rdf:about=""><dc:format>image/svg+xml</dc:format><dc:type
           rdf:resource="http://purl.org/dc/dcmitype/StillImage" /></cc:Work></rdf:RDF></metadata><defs
     id="defs12" /><sodipodi:namedview
     pagecolor="#ffffff"
     bordercolor="#666666"
     borderopacity="1"
     objecttolerance="10"
     gridtolerance="10"
     guidetolerance="10"
     inkscape:pageopacity="0"
     inkscape:pageshadow="2"
     inkscape:window-width="1920"
     inkscape:window-height="1017"
     id="namedview10"
     showgrid="false"
     inkscape:zoom="5.2149125"
     inkscape:cx="84.661208"
     inkscape:cy="62.805831"
     inkscape:window-x="-8"
     inkscape:window-y="-8"
     inkscape:window-maximized="1"
     inkscape:current-layer="svg8" /><polygon
     points="32.086,191.492 15.5,6 197.946,6 181.36,191.814 106.723,213.541 "
     id="polygon2"
     transform="matrix(1.0162583,0,0,1.0619336,-1.5703376,-6.3041077)"
     style="fill:#178faf" /><polygon
     fill="#E6E6E6"
     points="45.044,44 168.402,44 166.329,67.691 116.916,90 164.256,90 159.073,161.252 108.625,175.627   57.483,162.129 53.855,126 77.179,126 78.907,144.523 108.625,150.677 135.403,142.205 137.132,113 52.3,113 50.4,90.296   105.168,65 48.154,65 "
     id="polygon4" /><polygon
     opacity="0.5"
     fill="#FFFFFF"
     points="107.5,196.739 107.5,21 182.396,21 168.445,180.396 "
     id="polygon6" /></svg>