<?xml version="1.0" encoding="UTF-8" standalone="no"?>
<svg
   xmlns:dc="http://purl.org/dc/elements/1.1/"
   xmlns:cc="http://creativecommons.org/ns#"
   xmlns:rdf="http://www.w3.org/1999/02/22-rdf-syntax-ns#"
   xmlns:svg="http://www.w3.org/2000/svg"
   xmlns="http://www.w3.org/2000/svg"
   xmlns:sodipodi="http://sodipodi.sourceforge.net/DTD/sodipodi-0.dtd"
   xmlns:inkscape="http://www.inkscape.org/namespaces/inkscape"
   version="1.1"
   x="0px"
   y="0px"
   width="250px"
   height="250px"
   viewBox="0 0 250 250"
   xml:space="preserve"
   id="svg10"
   sodipodi:docname="jquery-logo.svg"
   inkscape:version="0.92.0 r15299"><metadata
     id="metadata16"><rdf:RDF><cc:Work
         rdf:about=""><dc:format>image/svg+xml</dc:format><dc:type
           rdf:resource="http://purl.org/dc/dcmitype/StillImage" /></cc:Work></rdf:RDF></metadata><defs
     id="defs14" /><sodipodi:namedview
     pagecolor="#ffffff"
     bordercolor="#666666"
     borderopacity="1"
     objecttolerance="10"
     gridtolerance="10"
     guidetolerance="10"
     inkscape:pageopacity="0"
     inkscape:pageshadow="2"
     inkscape:window-width="716"
     inkscape:window-height="480"
     id="namedview12"
     showgrid="false"
     inkscape:zoom="0.944"
     inkscape:cx="125"
     inkscape:cy="125"
     inkscape:window-x="742"
     inkscape:window-y="150"
     inkscape:window-maximized="0"
     inkscape:current-layer="g8" /><g
     id="g8"><path
       style="fill:#3bbdd5;fill-opacity:1"
       d="M24.1,63.9c-20.6,29.7-18.1,68.3-2.3,99.8c0.4,0.8,0.8,1.5,1.2,2.2c0.2,0.5,0.5,1,0.7,1.4   c0.1,0.3,0.3,0.6,0.5,0.8c0.3,0.5,0.5,1,0.8,1.5c0.5,0.9,1,1.7,1.5,2.6c0.3,0.5,0.6,0.9,0.9,1.4c0.6,0.9,1.2,1.8,1.7,2.7   c0.2,0.4,0.5,0.8,0.7,1.2c0.8,1.2,1.7,2.4,2.5,3.7c0,0,0,0.1,0.1,0.1c0.1,0.2,0.3,0.4,0.4,0.6c0.8,1,1.5,2.1,2.3,3.1   c0.3,0.4,0.6,0.7,0.9,1.1c0.7,0.9,1.4,1.7,2.1,2.6c0.3,0.3,0.5,0.7,0.8,1c1,1.1,2,2.3,3,3.4c0,0,0,0,0.1,0.1c0,0,0.1,0.1,0.1,0.1   c1,1.1,2,2.1,3,3.2c0.3,0.3,0.6,0.7,1,1c0.8,0.8,1.6,1.6,2.4,2.4c0.3,0.3,0.7,0.6,1,0.9c1.1,1,2.2,2,3.3,3c0,0,0,0,0.1,0   c0.2,0.2,0.4,0.3,0.6,0.5c1,0.9,2,1.7,3,2.5c0.4,0.3,0.8,0.7,1.2,1c0.8,0.7,1.7,1.3,2.5,2c0.4,0.3,0.9,0.7,1.3,1   c0.9,0.7,1.9,1.4,2.8,2c0.4,0.3,0.7,0.5,1,0.7c0.1,0.1,0.2,0.1,0.3,0.2c0.9,0.6,1.8,1.2,2.7,1.8c0.4,0.3,0.8,0.5,1.2,0.8   c1.4,0.9,2.8,1.8,4.3,2.6c0.4,0.2,0.8,0.4,1.2,0.7c1.1,0.6,2.1,1.2,3.2,1.8c0.6,0.3,1.2,0.6,1.8,0.9c0.8,0.4,1.5,0.8,2.3,1.2   c0.2,0.1,0.4,0.2,0.5,0.3c0.3,0.1,0.6,0.3,0.9,0.5c1.2,0.6,2.4,1.1,3.6,1.7c0.3,0.1,0.5,0.2,0.8,0.3c1.4,0.6,2.8,1.2,4.2,1.8   c0.3,0.1,0.7,0.3,1,0.4c1.3,0.5,2.7,1,4,1.5c0.2,0.1,0.3,0.1,0.5,0.2c1.5,0.5,3,1,4.5,1.5c0.4,0.1,0.7,0.2,1.1,0.3   c1.5,0.5,3,1,4.6,1.3c99.9,18.2,128.9-60,128.9-60c-24.4,31.7-67.6,40.1-108.6,30.8c-1.6-0.3-3.1-0.8-4.6-1.3   c-0.4-0.1-0.8-0.2-1.1-0.4c-1.5-0.5-2.9-0.9-4.4-1.4c-0.2-0.1-0.4-0.1-0.6-0.2c-1.3-0.5-2.6-0.9-3.9-1.4c-0.4-0.1-0.7-0.3-1.1-0.4   c-1.4-0.6-2.8-1.1-4.2-1.7c-0.3-0.1-0.6-0.3-0.8-0.4c-1.2-0.5-2.4-1.1-3.5-1.6c-0.3-0.2-0.7-0.3-1-0.5c-0.9-0.4-1.8-0.9-2.7-1.4   c-0.6-0.3-1.2-0.6-1.8-1c-1.1-0.6-2.2-1.2-3.3-1.8c-0.4-0.2-0.7-0.4-1.1-0.6c-1.4-0.8-2.9-1.7-4.3-2.6c-0.4-0.2-0.8-0.5-1.1-0.8   c-1-0.7-2-1.3-3-2c-0.3-0.2-0.7-0.5-1-0.7c-1-0.7-1.9-1.4-2.9-2.1c-0.4-0.3-0.9-0.6-1.3-1c-0.9-0.7-1.7-1.3-2.6-2   c-0.4-0.3-0.8-0.6-1.2-0.9c-1.1-0.9-2.2-1.8-3.2-2.7c-0.1-0.1-0.2-0.2-0.4-0.3c-1.1-1-2.3-2-3.4-3.1c-0.3-0.3-0.6-0.6-1-0.9   c-0.8-0.8-1.6-1.6-2.4-2.4c-0.3-0.3-0.6-0.6-1-1c-1-1-2-2.1-3-3.2c0-0.1-0.1-0.1-0.1-0.2c-1-1.1-2-2.3-3-3.5   c-0.3-0.3-0.5-0.6-0.8-0.9c-0.7-0.9-1.5-1.8-2.2-2.7c-0.3-0.3-0.5-0.7-0.8-1c-0.9-1.1-1.7-2.2-2.5-3.4c-22.7-31-30.9-73.8-12.7-109   L24.1,63.9z"
       id="path2" /><path
       style="fill:#3bbdd5;fill-opacity:1"
       d="M88.2,38.9c-14.9,21.5-14.1,50.3-2.5,73c2,3.8,4.1,7.5,6.6,11c2.2,3.2,4.7,7,7.7,9.6   c1.1,1.2,2.2,2.3,3.3,3.5c0.3,0.3,0.6,0.6,0.9,0.9c1.1,1.1,2.3,2.1,3.4,3.2c0,0,0.1,0.1,0.1,0.1c0,0,0,0,0,0c1.3,1.1,2.6,2.2,4,3.3   c0.3,0.2,0.6,0.5,0.9,0.7c1.4,1,2.8,2.1,4.2,3.1c0,0,0.1,0.1,0.1,0.1c0.6,0.4,1.3,0.8,1.9,1.3c0.3,0.2,0.6,0.4,0.9,0.6   c1,0.7,2.1,1.3,3.1,1.9c0.1,0.1,0.3,0.2,0.4,0.3c0.9,0.5,1.8,1,2.7,1.5c0.3,0.2,0.6,0.3,1,0.5c0.6,0.3,1.3,0.7,1.9,1   c0.1,0,0.2,0.1,0.3,0.1c1.3,0.7,2.6,1.3,4,1.9c0.3,0.1,0.6,0.2,0.9,0.4c1.1,0.5,2.2,0.9,3.3,1.3c0.5,0.2,0.9,0.3,1.4,0.5   c1,0.4,2,0.7,3,1.1c0.5,0.1,0.9,0.3,1.4,0.4c1.4,0.5,2.9,1,4.4,1.3c77.1,12.8,94.9-46.6,94.9-46.6c-16,23.1-47.1,34.1-80.3,25.5   c-1.5-0.4-2.9-0.8-4.4-1.3c-0.4-0.1-0.9-0.3-1.3-0.4c-1-0.3-2-0.7-3.1-1.1c-0.5-0.2-0.9-0.3-1.4-0.5c-1.1-0.4-2.2-0.9-3.3-1.3   c-0.3-0.1-0.6-0.2-0.9-0.4c-1.4-0.6-2.7-1.2-4-1.9c-0.7-0.3-1.3-0.7-2-1c-0.4-0.2-0.8-0.4-1.2-0.6c-0.9-0.5-1.7-0.9-2.5-1.4   c-0.2-0.1-0.4-0.2-0.6-0.3c-1-0.6-2.1-1.2-3.1-1.9c-0.3-0.2-0.6-0.4-0.9-0.6c-0.7-0.4-1.3-0.9-2-1.3c-1.4-1-2.8-2-4.2-3.1   c-0.3-0.2-0.6-0.5-0.9-0.7C112,111,100.5,95.3,95,77.5c-5.7-18.4-4.5-39.1,5.4-55.9L88.2,38.9z"
       id="path4" /><path
       style="fill:#3bbdd5;fill-opacity:1"
       d="M142.1,20.2c-8.8,13-9.7,29-3.6,43.4c6.4,15.2,19.6,27.1,35,32.8c0.6,0.2,1.3,0.4,1.9,0.7   c0.3,0.1,0.6,0.2,0.8,0.3c0.9,0.3,1.8,0.6,2.7,0.8c42.6,8.2,54.1-21.8,57.2-26.3c-10.1,14.6-27.1,18.1-48,13c-1.6-0.4-3.5-1-5-1.6   c-2-0.7-4-1.6-6-2.5c-3.7-1.8-7.2-3.9-10.5-6.4c-18.7-14.2-30.3-41.2-18.1-63.2L142.1,20.2z"
       id="path6" /></g></svg>