<?xml version="1.0" encoding="UTF-8" standalone="no"?>
<svg
   xmlns:osb="http://www.openswatchbook.org/uri/2009/osb"
   xmlns:dc="http://purl.org/dc/elements/1.1/"
   xmlns:cc="http://creativecommons.org/ns#"
   xmlns:rdf="http://www.w3.org/1999/02/22-rdf-syntax-ns#"
   xmlns:svg="http://www.w3.org/2000/svg"
   xmlns="http://www.w3.org/2000/svg"
   xmlns:sodipodi="http://sodipodi.sourceforge.net/DTD/sodipodi-0.dtd"
   xmlns:inkscape="http://www.inkscape.org/namespaces/inkscape"
   viewBox="0 0 512 512"
   version="1.1"
   id="svg5058"
   sodipodi:docname="rwd.svg"
   inkscape:version="0.92.0 r15299">
  <metadata
     id="metadata5064">
    <rdf:RDF>
      <cc:Work
         rdf:about="">
        <dc:format>image/svg+xml</dc:format>
        <dc:type
           rdf:resource="http://purl.org/dc/dcmitype/StillImage" />
        <dc:title />
      </cc:Work>
    </rdf:RDF>
  </metadata>
  <defs
     id="defs5062">
    <linearGradient
       id="linearGradient7703"
       osb:paint="solid">
      <stop
         style="stop-color:#000000;stop-opacity:1;"
         offset="0"
         id="stop7701" />
    </linearGradient>
  </defs>
  <sodipodi:namedview
     pagecolor="#ffffff"
     bordercolor="#666666"
     borderopacity="1"
     objecttolerance="10"
     gridtolerance="10"
     guidetolerance="10"
     inkscape:pageopacity="0"
     inkscape:pageshadow="2"
     inkscape:window-width="1579"
     inkscape:window-height="1008"
     id="namedview5060"
     showgrid="false"
     inkscape:zoom="0.65186408"
     inkscape:cx="93.365592"
     inkscape:cy="315.53463"
     inkscape:window-x="-7"
     inkscape:window-y="0"
     inkscape:window-maximized="0"
     inkscape:current-layer="svg5058"
     inkscape:measure-start="281.279,246.616"
     inkscape:measure-end="343.003,247.356" />
  <path
     fill="#E34F26"
     d="M71,460 L30,0 481,0 440,460 255,512"
     id="path5050"
     style="fill:#00a48f;fill-opacity:1" />
  <path
     fill="#EF652A"
     d="M256,472 L405,431 440,37 256,37"
     id="path5052"
     style="fill:#2af1d7;fill-opacity:0.68341708" />
  <path
     d="m 256,208 h -75 l -5,-58 h 80 V 94 h -1 -141 l 1,15 14,156 h 127 z m -57.49153,191.83051 v 0 0 l -12.80956,-135.4983 -27.60303,0.0959 L 129,265 l 10,117 59.50847,17.83051 z"
     id="path5054"
     inkscape:connector-curvature="0"
     style="fill:#ffffff;fill-opacity:1"
     sodipodi:nodetypes="ccccccccccccccccccccc" />
  <path
     d="m 255,208 v 57 l 29.34735,0.38352 v 0 l 12.26409,132.37847 58.48612,-18.27839 -12.09419,-114.83936 38.5946,0.17999 10.37046,-114.677 -55.17082,-1.68761 -5.80491,58.9322 z M 391.96843,150.14723 C 393.72107,130.58957 395.50008,110.73758 397,94 H 255 v 35 21 0"
     id="path5056"
     inkscape:connector-curvature="0"
     style="fill:#ffffff"
     sodipodi:nodetypes="cccccccccccccccccc" />
  <path
     style="fill:none;stroke:#000000;stroke-width:0;stroke-linecap:butt;stroke-linejoin:miter;stroke-opacity:1;stroke-miterlimit:4;stroke-dasharray:none;fill-opacity:1;fill-rule:evenodd"
     d="M 114,94 H 397 L 381.59797,264.82423 129,265 114,94"
     id="path7699"
     inkscape:connector-curvature="0" />
</svg>
